<?xml version="1.0" encoding="UTF-8" standalone="no"?><!DOCTYPE svg PUBLIC "-//W3C//DTD SVG 1.1//EN" "http://www.w3.org/Graphics/SVG/1.1/DTD/svg11.dtd"><svg width="100%" height="100%" viewBox="0 0 200 100" version="1.1" xmlns="http://www.w3.org/2000/svg" xmlns:xlink="http://www.w3.org/1999/xlink" xml:space="preserve" xmlns:serif="http://www.serif.com/" style="fill-rule:evenodd;clip-rule:evenodd;stroke-linecap:round;stroke-linejoin:round;stroke-miterlimit:1.5;"><rect x="10.905" y="5.453" width="38.251" height="89.095" style="fill:#b4ecd2;"/><rect x="49.156" y="5.453" width="47.433" height="89.095" style="fill:#f0cece;"/><rect x="96.589" y="5.453" width="47.433" height="89.095" style="fill:#f0efce;"/><rect x="144.022" y="5.453" width="45.073" height="89.095" style="fill:#ced1f0;"/><path d="M10.905,13.704l2.235,2.002l2.445,-0.466l1.89,-2.005l2.323,-0.567l2.036,0.644l1.364,3.165l1.97,-0.707l2.192,1.167l1.865,-1.471l1.601,1.401l2.278,-4.518l2.115,3.243l2.043,0.718l1.47,-3.052l1.945,2.415l2.311,-3.156l1.564,2.489l4.204,-4.185l1.705,0.889l2.048,3.373l2.424,1.325l1.21,4.193l2.26,-3.124l2.124,4.113l2.323,2.606l1.225,5.149l2.14,4.759l2.194,-2.6l1.213,3.546l2.2,1.009l2.232,2.196l2.306,0.531l1.545,5.028l2.131,4.452l1.813,2.128l2.402,0.633l1.625,2.859l1.666,2.129l2.138,-0.097l1.692,-2.618l2.656,1.312l1.281,6.76l1.892,-1.619l2.752,0.938l1.629,-1.015l1.379,-5.298l2.403,0.665l2.039,-2.9l1.437,-5.649l2.465,1.587l1.964,2.098l1.719,-2.006l2.032,-0.376l2.41,-6.581l1.493,-3.455l2.743,-0.008l1.194,-5.523l2.671,-1.402l1.887,0.811l1.437,-2.518l1.421,-4.264l2.231,1.435l2.072,-2.575l2.025,2.398l2.366,-3.452l1.902,-1.59l1.704,0.824l1.826,-4.134l2.412,-0.975l1.75,-1.375l1.275,1.983l2.164,-1.171l1.909,-0.914l3.607,-4.179l2.302,-0.028l2.739,-1.471l1.302,4.509l1.632,-4.526l1.808,1.81l2.553,-1.178l1.747,4.808l1.969,-0.359l2.076,0.715l1.822,-2.343l1.993,-2.178l2,2.126l1.662,-2.141l2.544,0.332" style="fill:none;stroke:#00bbfe;stroke-width:0.83px;"/><path d="M11.154,13.02l177.941,0" style="fill:none;stroke:#ffb702;stroke-width:2.08px;stroke-dasharray:1.04,3.12,0,0;"/><g transform="matrix(0.99948,0,0,0.99948,0.8494,2.31149)"><text x="12.094px" y="21.308px" style="font-family:'STHeitiSC-Medium', 'Heiti SC';font-size:4.167px;">手远离电极时，</text><text x="12.094px" y="25.6px" style="font-family:'STHeitiSC-Medium', 'Heiti SC';font-size:4.167px;">计数值接近于参考值</text></g><g transform="matrix(0.99948,0,0,0.99948,-26.8044,-19.8044)"><text x="74.22px" y="69.841px" style="font-family:'STHeitiSC-Medium', 'Heiti SC';font-size:4.167px;">当手接近电极时，</text><text x="74.22px" y="74.132px" style="font-family:'STHeitiSC-Medium', 'Heiti SC';font-size:4.167px;">计数值变小</text></g><g transform="matrix(0.99948,0,0,0.99948,-9.75984,-2.23229)"><text x="134.406px" y="46.078px" style="font-family:'STHeitiSC-Medium', 'Heiti SC';font-size:4.167px;">当手离开电极时，</text><text x="134.406px" y="50.37px" style="font-family:'STHeitiSC-Medium', 'Heiti SC';font-size:4.167px;">计数值变大</text></g><g transform="matrix(6.12323e-17,-1,1,6.12323e-17,-63.5804,53.923)"><text x="-2.335px" y="72.495px" style="font-family:'STHeitiSC-Medium', 'Heiti SC';font-size:4.167px;">计数值</text></g><text x="1.129px" y="14.142px" style="font-family:'STHeitiSC-Medium', 'Heiti SC';font-size:2.784px;">参考值</text><text x="23.791px" y="92.419px" style="font-family:'STHeitiSC-Medium', 'Heiti SC';font-size:4.167px;">无移动</text><text x="160.319px" y="92.448px" style="font-family:'STHeitiSC-Medium', 'Heiti SC';font-size:4.167px;">无移动</text><text x="56.222px" y="92.419px" style="font-family:'STHeitiSC-Medium', 'Heiti SC';font-size:4.167px;">手向电极方向移动</text><text x="99.767px" y="92.419px" style="font-family:'STHeitiSC-Medium', 'Heiti SC';font-size:4.167px;">手向离开电极方向移动</text><path d="M97.808,16.534l0,39.554l0,-39.554Z" style="fill:none;stroke:#fe001a;stroke-width:2.08px;"/><path d="M97.808,16.534l-3.083,5.797" style="fill:none;stroke:#fe001a;stroke-width:2.08px;"/><path d="M97.808,16.534l3.388,5.797" style="fill:none;stroke:#fe001a;stroke-width:2.08px;"/><path d="M97.808,56.088l-3.083,-4.282" style="fill:none;stroke:#fe001a;stroke-width:2.08px;"/><path d="M97.808,56.088l3.388,-4.282" style="fill:none;stroke:#fe001a;stroke-width:2.08px;"/><g transform="matrix(0.748056,0,0,0.748056,24.4654,6.19975)"><text x="100.8px" y="27.684px" style="font-family:'STHeitiSC-Medium', 'Heiti SC';font-size:4.167px;fill:#f00;">根据计数值和参考值</text><text x="100.8px" y="31.976px" style="font-family:'STHeitiSC-Medium', 'Heiti SC';font-size:4.167px;fill:#f00;">的差异程度来计算</text><text x="100.8px" y="36.279px" style="font-family:'ArialMT', 'Arial', sans-serif;font-size:4.167px;fill:#f00;">3D</text><text x="106.126px" y="36.279px" style="font-family:'STHeitiSC-Medium', 'Heiti SC';font-size:4.167px;fill:#f00;">位置</text></g></svg>