<?xml version="1.0" encoding="UTF-8" standalone="no"?><!DOCTYPE svg PUBLIC "-//W3C//DTD SVG 1.1//EN" "http://www.w3.org/Graphics/SVG/1.1/DTD/svg11.dtd"><svg width="100%" height="100%" viewBox="0 0 48 24" version="1.1" xmlns="http://www.w3.org/2000/svg" xmlns:xlink="http://www.w3.org/1999/xlink" xml:space="preserve" xmlns:serif="http://www.serif.com/" style="fill-rule:evenodd;clip-rule:evenodd;stroke-linecap:round;stroke-linejoin:round;stroke-miterlimit:1.5;"><rect x="18.498" y="6.467" width="10.97" height="10.97" style="fill:#fff;stroke:#0079be;stroke-width:0.1px;"/><text x="21.657px" y="11.302px" style="font-family:'ArialMT', 'Arial', sans-serif;font-size:1.185px;">RX</text><rect x="18.498" y="4.035" width="10.97" height="1.377" style="fill:#fff;stroke:#0079be;stroke-width:0.1px;"/><text x="21.789px" y="5.147px" style="font-family:'ArialMT', 'Arial', sans-serif;font-size:1.185px;">TX</text><rect x="18.498" y="18.492" width="10.97" height="1.377" style="fill:#fff;stroke:#0079be;stroke-width:0.1px;"/><path d="M31.9,17.436l0,-10.969l-1.377,0l0,10.969l1.377,0Z" style="fill:#fff;stroke:#0079be;stroke-width:0.1px;"/><path d="M17.443,17.436l0,-10.969l-1.377,0l0,10.969l1.377,0Z" style="fill:#fff;stroke:#0079be;stroke-width:0.1px;"/><text x="25.264px" y="19.604px" style="font-family:'ArialMT', 'Arial', sans-serif;font-size:1.185px;">TX</text><g transform="matrix(6.12323e-17,1,-1,6.12323e-17,24.9828,-40.8552)"><text x="50.542px" y="-5.805px" style="font-family:'ArialMT', 'Arial', sans-serif;font-size:1.185px;">TX</text></g><g transform="matrix(6.12323e-17,-1,1,6.12323e-17,-17.2124,47.3066)"><text x="32.67px" y="34.391px" style="font-family:'ArialMT', 'Arial', sans-serif;font-size:1.185px;">TX</text></g><text x="21.997px" y="3.197px" style="font-family:'STHeitiSC-Medium', 'Heiti SC';font-size:1.185px;">上</text><text x="32.584px" y="10.856px" style="font-family:'STHeitiSC-Medium', 'Heiti SC';font-size:1.185px;">右</text><text x="25.405px" y="21.784px" style="font-family:'STHeitiSC-Medium', 'Heiti SC';font-size:1.185px;">下</text><text x="14.083px" y="14.308px" style="font-family:'STHeitiSC-Medium', 'Heiti SC';font-size:1.185px;">左</text><path d="M10.496,11.952l26.947,0" style="fill:#fff;stroke:#ffb803;stroke-width:0.1px;"/><path d="M24,0.911l0,22.043" style="fill:none;stroke:#ffb702;stroke-width:0.1px;"/><path d="M24,11.933l-9.966,9.966" style="fill:none;stroke:#ffb702;stroke-width:0.1px;stroke-dasharray:0.2,0.4,0.4,0;"/><g transform="matrix(0.24,0,0,0.24,-0.147213,-0.127239)"><text x="102.178px" y="55.779px" style="font-family:'STHeitiSC-Medium', 'Heiti SC';font-size:4.167px;">坐标原点</text><text x="104.494px" y="60.082px" style="font-family:'ArialMT', 'Arial', sans-serif;font-size:4.167px;">(0,0,0)</text></g><text x="37.366px" y="13.976px" style="font-family:'ArialMT', 'Arial', sans-serif;font-size:2px;">X</text><text x="24.649px" y="2.046px" style="font-family:'ArialMT', 'Arial', sans-serif;font-size:2px;">Y</text><path d="M24,0.911l0.436,0.882" style="fill:none;stroke:#ffb702;stroke-width:0.1px;"/><path d="M24,0.911l-0.371,0.882" style="fill:none;stroke:#ffb702;stroke-width:0.1px;"/><path d="M37.443,11.933l-0.834,-0.497" style="fill:none;stroke:#ffb702;stroke-width:0.1px;"/><path d="M37.443,11.933l-0.834,0.513" style="fill:none;stroke:#ffb702;stroke-width:0.1px;"/><path d="M14.034,21.899l0.341,-0.936" style="fill:none;stroke:#ffb702;stroke-width:0.1px;"/><path d="M14.034,21.899l0.952,-0.468" style="fill:none;stroke:#ffb702;stroke-width:0.1px;"/><text x="12.428px" y="21.665px" style="font-family:'ArialMT', 'Arial', sans-serif;font-size:2px;">Z</text></svg>