<?xml version="1.0" encoding="UTF-8" standalone="no"?><!DOCTYPE svg PUBLIC "-//W3C//DTD SVG 1.1//EN" "http://www.w3.org/Graphics/SVG/1.1/DTD/svg11.dtd"><svg width="100%" height="100%" viewBox="0 0 48 24" version="1.1" xmlns="http://www.w3.org/2000/svg" xmlns:xlink="http://www.w3.org/1999/xlink" xml:space="preserve" xmlns:serif="http://www.serif.com/" style="fill-rule:evenodd;clip-rule:evenodd;stroke-linecap:round;stroke-linejoin:round;stroke-miterlimit:1.5;"><path d="M40.853,10.295l-9.383,0l-6.18,5.126l9.382,0l6.181,-5.126Z" style="fill:#e9aba5;"/><path d="M23.89,10.295l-9.382,0l-6.181,5.126l9.383,0l6.18,-5.126Z" style="fill:#e8aaa4;"/><path d="M19.767,12.858l0,-3.251l4.462,0" style="fill:none;stroke:#000;stroke-width:0.24px;"/><path d="M24.229,7.392l0,5.131" style="fill:none;stroke:#000;stroke-width:0.24px;"/><path d="M30.125,12.858l0,-3.251l-4.462,0" style="fill:none;stroke:#000;stroke-width:0.24px;"/><path d="M25.663,7.392l0,5.131" style="fill:none;stroke:#000;stroke-width:0.24px;"/><rect x="8.327" y="15.421" width="9.382" height="0.64" style="fill:#da766b;"/><path d="M23.89,10.295l-6.18,5.126l0,0.641l6.18,-5.127l0,-0.64Z" style="fill:#b03328;"/><path d="M40.853,10.3l-6.181,5.127l0,0.64l6.181,-5.126l0,-0.641Z" style="fill:#af3328;"/><rect x="25.29" y="15.421" width="9.382" height="0.64" style="fill:#da766b;"/><path d="M32.621,16.067l0,2.658l4.549,0" style="fill:none;stroke:#000;stroke-width:0.1px;"/><path d="M32.621,16.872l-0.834,0.834" style="fill:none;stroke:#000;stroke-width:0.1px;"/><path d="M32.621,16.872l0.834,0.834l-1.668,0" style="fill:#fff;stroke:#000;stroke-width:0.1px;"/><path d="M11.025,13.184c0,0 -3.609,-1.296 -5.601,-0.326" style="fill:none;stroke:#000;stroke-width:0.1px;"/><path d="M5.424,12.858l0.387,-0.933" style="fill:none;stroke:#000;stroke-width:0.1px;"/><path d="M5.424,12.858l1.03,0.326" style="fill:none;stroke:#000;stroke-width:0.1px;"/><path d="M37.895,19.054l0.33,0l0,-1.773l0.449,0l0,1.773l0.313,0l0,-1.777l0.397,0l0,1.764l0.285,0l0,-1.76l0.33,0l0,1.761l0.291,0" style="fill:none;stroke:#000;stroke-width:0.1px;"/><path d="M16.913,11.639c0,0 6.805,-8.152 15.354,0.14" style="fill:none;stroke:#0079be;stroke-width:0.1px;"/><path d="M17.264,10.858c0,0 6.805,-8.152 15.355,0.139" style="fill:none;stroke:#0079be;stroke-width:0.1px;"/><path d="M16.552,12.719c0,0 6.805,-8.152 15.355,0.139" style="fill:none;stroke:#0079be;stroke-width:0.1px;"/><text x="21.164px" y="6.166px" style="font-family:'STHeitiSC-Medium', 'Heiti SC';font-size:1.5px;">电磁场耦合</text><text x="37.834px" y="15.659px" style="font-family:'STHeitiSC-Medium', 'Heiti SC';font-size:1.5px;">发送电极</text><text x="10.97px" y="18.161px" style="font-family:'STHeitiSC-Medium', 'Heiti SC';font-size:1.5px;">接收电极</text><text x="4.119px" y="11.13px" style="font-family:'STHeitiSC-Medium', 'Heiti SC';font-size:1.5px;">至检测器</text></svg>