<?xml version="1.0" encoding="UTF-8" standalone="no"?><!DOCTYPE svg PUBLIC "-//W3C//DTD SVG 1.1//EN" "http://www.w3.org/Graphics/SVG/1.1/DTD/svg11.dtd"><svg width="100%" height="100%" viewBox="0 0 100 15" version="1.1" xmlns="http://www.w3.org/2000/svg" xmlns:xlink="http://www.w3.org/1999/xlink" xml:space="preserve" xmlns:serif="http://www.serif.com/" style="fill-rule:evenodd;clip-rule:evenodd;stroke-linejoin:round;stroke-miterlimit:1.41421;"><path d="M100,3.469c0,-0.92 -0.366,-1.802 -1.016,-2.453c-0.651,-0.65 -1.533,-1.016 -2.453,-1.016c-15.419,0 -77.643,0 -93.062,0c-0.92,0 -1.802,0.366 -2.453,1.016c-0.65,0.651 -1.016,1.533 -1.016,2.453c0,2.422 0,5.64 0,8.062c0,0.92 0.366,1.802 1.016,2.453c0.651,0.65 1.533,1.016 2.453,1.016c15.419,0 77.643,0 93.062,0c0.92,0 1.802,-0.366 2.453,-1.016c0.65,-0.651 1.016,-1.533 1.016,-2.453c0,-2.422 0,-5.64 0,-8.062Z" style="fill:#e8be65;"/><clipPath id="_clip1"><path d="M100,3.469c0,-0.92 -0.366,-1.802 -1.016,-2.453c-0.651,-0.65 -1.533,-1.016 -2.453,-1.016c-15.419,0 -77.643,0 -93.062,0c-0.92,0 -1.802,0.366 -2.453,1.016c-0.65,0.651 -1.016,1.533 -1.016,2.453c0,2.422 0,5.64 0,8.062c0,0.92 0.366,1.802 1.016,2.453c0.651,0.65 1.533,1.016 2.453,1.016c15.419,0 77.643,0 93.062,0c0.92,0 1.802,-0.366 2.453,-1.016c0.65,-0.651 1.016,-1.533 1.016,-2.453c0,-2.422 0,-5.64 0,-8.062Z"/></clipPath><g clip-path="url(#_clip1)"><rect x="50" y="-9.95" width="76.593" height="30.788" style="fill:#fff;"/></g><text x="13.257px" y="11.693px" style="font-family:'JCHEadA', 'HeadLineA';font-size:12.5px;">week</text><text x="66.871px" y="11.901px" style="font-family:'JCHEadA', 'HeadLineA';font-size:12.5px;">19.1</text></svg>